 
<svg version="1.1" id="图层_1" xmlns="http://www.w3.org/2000/svg" xmlns:xlink="http://www.w3.org/1999/xlink" x="0px" y="0px"
	 viewBox="0 0 595.3 841.9" style="enable-background:new 0 0 595.3 841.9;" xml:space="preserve">
<style type="text/css">
	.st0{fill:#FFFFFF;}
</style>
<g>
	<g>
		<g>
			<path class="st0" d="M701.6,438.4l0.3,0c1.9,0.2,2.2,0.2,2.2,2.2v3.7h-10v-3.7c0-1.8,0.1-2,2.1-2.2l0.3,0v-1h-7v1l0.3,0
				c2,0.2,2.2,0.3,2.2,2.2v10c0,1.8-0.1,2-2.1,2.2l-0.3,0v1h7v-1l-0.3,0c-1-0.1-1.6-0.2-1.9-0.5c-0.3-0.3-0.3-0.9-0.3-1.7v-4.8h10
				v4.8c0,1.8-0.1,2-2.4,2.2l-0.3,0v1h7.1v-1l-0.3,0c-1.9-0.1-2.1-0.2-2.1-2.2v-10c0-1.9,0.2-2,2.2-2.2l0.3,0v-1h-7V438.4z"/>
			<path class="st0" d="M711.2,438.4l0.3,0c2.2,0.1,2.2,0.4,2.2,2.3v9.1c0,6-0.8,8.4-2.6,9l-0.3,0.1l0,1.4l0.4-0.2
				c3-1.3,4.5-4,4.5-9.3v-10.2c0-1.9,0.1-2.2,2-2.3l0.3,0v-1h-7V438.4z"/>
			<path class="st0" d="M726.6,447.3C726.6,447.3,726.6,447.3,726.6,447.3c1.5,0,3.1-0.6,4.2-1.5c1.1-1,1.7-2.3,1.7-3.8
				c0-2.1-1-4.7-6-4.7h-6.4v1l0.3,0c1.9,0.1,1.9,0.1,1.9,2.2v10c0,1.9,0.2,2.1-1.9,2.2l-0.3,0v1h7.7v-1l-0.3,0
				c-2.5-0.1-3.1-0.4-3.1-2.1v-3.7C724.3,446.9,725.5,447.3,726.6,447.3z M726.2,445.9c-0.9,0-1.5-0.1-1.9-0.3l0,0v-6.8
				c0-0.1,0-0.2,0-0.3l0,0l0,0c0.2,0,0.6,0,1.2,0c3.1,0,4.5,1.2,4.5,3.7C730.1,445.4,727.7,445.9,726.2,445.9z"/>
			<path class="st0" d="M752.9,453c-0.4-0.1-1.2-0.5-2.8-2.4c-0.4-0.6-1-1.4-1.3-1.9l0,0l0,0c1.4-0.7,2-1.6,2-3c0-1.9-1.4-3-4-3
				h-4.5v0.9l0.3,0c1.2,0.1,1.3,0.1,1.3,1.3v6.7c0,1.1,0,1.3-1.1,1.3l-0.1,0c-1.1-0.2-1.1-0.2-1.6-1.4c-0.5-1.3-1.1-2.8-1.7-4.4
				l-1.6-4.1c-0.1-0.2-0.3-0.4-0.5-0.4c0,0,0,0,0,0c-0.2,0-0.4,0.1-0.5,0.3l-3.7,8.3c-0.6,1.5-0.8,1.5-1.9,1.7l-0.3,0.1v0.8h4.7
				v-0.8l-0.3,0c-1.1-0.2-1.2-0.3-1.2-0.5c0-0.4,0.8-2.3,1.1-2.9l3.4,0c0.5,1.1,1.1,2.7,1.1,3.1c0,0.1-0.2,0.2-1.1,0.3l-0.3,0v0.8h4
				v0h5l0-0.8l-0.3,0c-1.3-0.1-1.3-0.2-1.3-1.4v-2.5l0,0c1.2,0,1.5,0.1,1.8,0.5c2.6,4.1,3.5,4.2,5.3,4.2h0.6l-0.2-0.8L752.9,453z
				 M748.2,447.7c-0.4,0.3-0.9,0.4-1.9,0.4h-0.7v-4.4l0-0.1l0,0c0.1,0,0.4,0,0.7,0c1.8,0,2.7,0.8,2.7,2.2
				C749,446.7,748.8,447.3,748.2,447.7z M735.5,448.4c0,0,0.9-2.2,1.4-3.3l0-0.1l1.3,3.3H735.5z"/>
			<path class="st0" d="M761.9,443.2c0-0.3-0.3-0.5-0.6-0.5h-9c-0.3,0-0.5,0.2-0.6,0.5c0,0.9-0.1,1.6-0.2,2.3l0,0.4h0.9l0.1-0.2
				c0.5-1.6,0.6-1.9,2.7-1.9h0.7v7.9c0,1.1,0,1.2-1.6,1.3l-0.5,0l0.2,0.9h5.4v-0.9l-0.3,0c-1.6-0.1-1.6-0.2-1.6-1.3v-7.9h1.2
				c1.4,0,1.9,0.2,2.2,1.9l0.1,0.3l0.9-0.2l0-0.6C762,444.5,761.9,443.8,761.9,443.2z"/>
			<path class="st0" d="M770.7,443.5l0.3,0c1.8,0.1,1.6,0.2,1.6,3.5v3.9l-7.5-8.3h-2.5v0.8l0.3,0c0.9,0.1,1,0.2,1.2,0.5
				c0,0,0.1,0.1,0.1,0.1l0,0c0.2,0.2,0.2,0.2,0.2,1.5v3.6c0,1.7-0.1,2.6-0.2,3c-0.1,0.4-0.8,0.6-1.6,0.6l-0.3,0v0.9h5.3V453l-0.3,0
				c-1.2-0.1-1.3-0.4-1.4-0.7c-0.1-0.4-0.1-1.4-0.1-3v-3.7l7.5,8.2h0.7v-6.7c0-1.5,0-2.4,0.2-2.9c0.1-0.3,0.2-0.6,1.2-0.7l0.3,0
				v-0.9h-4.9V443.5z"/>
			<path class="st0" d="M784.8,450.7c-0.3,0.7-0.7,1.3-0.9,1.6c-0.5,0.5-1.5,0.5-2.4,0.5c-1.4,0-1.8,0-1.8-1.3v-3h1.7
				c1.2,0,1.4,0,1.6,1.1l0.1,0.3h0.9v-3.8H783l-0.1,0.3c-0.2,0.9-0.3,1-1.7,1h-1.7v-3.6c0,0,0-0.1,0-0.1l0,0l0,0c0,0,0.1,0,0.1,0
				h1.6c1.9,0,2.1,0.3,2.5,2l0.1,0.3l0.9-0.2l0-0.3c0-0.2,0-0.5-0.1-0.7c0-0.6-0.1-1.2-0.1-1.7c0-0.3-0.3-0.5-0.6-0.5h-7.7v0.9
				l0.3,0c1.2,0.1,1.3,0.1,1.3,1.5v6.6c0,1.1,0,1.3-1.5,1.3l-0.3,0v0.9h8.8l0.1-0.2c0.1-0.3,0.2-0.7,0.3-1.1l0,0
				c0.1-0.6,0.3-1.2,0.4-1.5l0.1-0.4h-1L784.8,450.7z"/>
			<path class="st0" d="M797,452.9c-0.6-0.1-1.6-1-2.8-2.4c-0.4-0.6-1-1.4-1.3-1.9l0,0l0,0c1.4-0.7,2-1.6,2-3c0-1.9-1.4-3-4-3h-4.5
				v0.9l0.3,0c1.2,0.1,1.3,0.1,1.3,1.3v6.7c0,1.1,0,1.3-1.4,1.4l-0.3,0v0.9h5v-0.9l-0.3,0c-1.3-0.1-1.3-0.2-1.3-1.4v-2.5l0,0
				c1.2,0,1.5,0.1,1.8,0.5c2.6,4.1,3.6,4.2,5.3,4.2h0.5l-0.2-0.8L797,452.9z M792.3,447.7c-0.4,0.3-0.9,0.4-1.9,0.4h-0.7v-4.4l0-0.1
				l0,0c0.2,0,0.4,0,0.7,0c1.8,0,2.7,0.8,2.7,2.2C793.1,446.7,792.8,447.3,792.3,447.7z"/>
			<path class="st0" d="M801.7,447.4L801.7,447.4c-0.1-0.1-0.2-0.1-0.3-0.1c-1.2-0.6-2-1-2-2.1c0-0.5,0.2-1.5,1.6-1.5
				c1.4,0,1.7,0.9,2.1,2l0.1,0.2h0.9l0-0.4c-0.1-0.8-0.2-1.4-0.2-1.8l-0.1-0.7l-0.2-0.1c-1-0.3-1.5-0.4-2.2-0.4
				c-1.7,0-3.6,1-3.6,2.9c0,0.9,0.5,2.2,2.8,3c0,0,0.1,0,0.1,0c0.1,0,0.2,0.1,0.2,0.1l0,0c0.9,0.4,1.9,0.9,1.9,2.2
				c0,1.2-0.6,1.8-1.8,1.8c-1.3,0-2.2-0.8-2.8-2.4l-0.1-0.2h-0.9l0,0.4c0.1,0.9,0.3,2.1,0.4,2.6l0,0.1l0.1,0.1
				c0.1,0.1,0.4,0.2,0.8,0.3c0.5,0.1,1.2,0.2,1.9,0.3c2.4,0,3.9-1.3,3.9-3.2C804.5,448.6,802.6,447.8,801.7,447.4z"/>
		</g>
		<rect x="720.1" y="456.3" class="st0" width="84.5" height="0.4"/>
		<path class="st0" d="M693.7,471.8v-2.6h-4.2l-0.1-0.9h4.3v-1l1.2,0.1v0.9h4.1l0.1,0.9h-4.2v2.6H693.7z M690.9,467.2v-2.4l0,0
			c-0.4,0.2-0.9,0.4-1.4,0.6v-0.7c1.2-0.6,2-1.4,2.4-2.7l1.3-0.1c-0.3,0.8-0.7,1.5-1,1.9l0,0v3.4H690.9z M694.9,467.1
			c-0.3,0-0.5-0.1-0.6-0.2c-0.1-0.1-0.2-0.4-0.2-0.7v-0.6l0,0c-0.3,0.1-0.7,0.2-1.2,0.3v-0.7c0.5-0.1,0.9-0.3,1.2-0.3l0,0V462
			l1.1,0.1v2.3l0,0c0.5-0.2,0.9-0.5,1.2-0.7c0.3-0.2,0.6-0.6,0.8-0.9h1.3c-0.5,0.8-1.1,1.4-1.8,1.8c-0.4,0.2-0.9,0.5-1.6,0.7l0,0v1
			h2.7V465l0.9,0.2v1c0,0.3-0.1,0.5-0.2,0.7c-0.1,0.1-0.3,0.2-0.6,0.2H694.9z"/>
		<path class="st0" d="M706.9,471.8c0-0.6-0.1-1.1-0.2-1.5c-0.1-0.3-0.1-0.5-0.2-0.8c0-0.1-0.1-0.2-0.1-0.4h0.9l0.1,0.1
			c0.2,0.3,0.3,0.6,0.3,0.8c0.1,0.3,0.3,0.9,0.5,1.7H706.9z M704.4,471.8c0-0.3,0-0.5,0-0.8c0-0.7,0-1.3-0.1-1.9h0.8
			c0.3,0.7,0.4,1.4,0.5,2.2c0,0.1,0,0.3,0.1,0.4H704.4z M701,471.8c0.5-0.7,0.8-1.3,0.9-1.5c0-0.1,0.1-0.2,0.1-0.3
			c0.1-0.3,0.3-0.6,0.4-1h0.9c-0.1,0.5-0.2,0.9-0.3,1.1c0,0.1-0.1,0.2-0.1,0.3c-0.1,0.4-0.2,0.9-0.4,1.4H701z M709.5,471.8
			c-0.1-0.3-0.1-0.6-0.1-0.7l0,0c0,0-0.1-0.2-0.1-0.4l-0.1-0.2l-0.3-1c-0.1-0.3-0.2-0.4-0.2-0.5h0.9c0.1,0.1,0.1,0.2,0.1,0.3
			c0.2,0.3,0.4,0.6,0.5,0.8c0,0.1,0.1,0.2,0.1,0.3c0.2,0.3,0.4,0.8,0.6,1.4H709.5z M705.3,468.3v-2.4l0-0.4l0,0.1
			c-1,1.2-2.3,1.9-4.2,2.5v-0.8c0.9-0.4,1.7-0.8,2.3-1.3c0.7-0.5,1.2-1.1,1.7-1.8l0,0h-3.7l-0.1-0.8h4v-1.4l1.2,0.1v1.2h4.1l0.1,0.8
			h-4l0,0c0.3,0.5,0.7,0.9,1,1.3c0.9,0.8,1.8,1.1,2.9,1.5l0.2,0.1l0.1,1c-0.9-0.2-1.7-0.5-2.3-0.9c-0.7-0.4-1.3-1-1.9-1.7l0,0l0,0.6
			v2.6L705.3,468.3z"/>
		<path class="st0" d="M719.3,471.9l-0.2-0.7h1.2c0.3,0,0.5-0.2,0.5-0.5v-2.9h-6.4v4l-1.2,0.1V467h8.7v4c0,0.3-0.1,0.5-0.2,0.6
			c-0.1,0.1-0.4,0.2-0.7,0.2H719.3z M715.3,470.5v-2.2h4.6v1.7c0,0.3-0.2,0.5-0.5,0.5H715.3z M716.3,469.9h2.6V469h-2.6V469.9z
			 M714.4,466.3v-2h6.6v1.5c0,0.3-0.2,0.5-0.5,0.5H714.4z M715.5,465.7h4.2v-0.8h-4.2V465.7z M713.2,463.6l-0.3-0.7h3.9l0,0
			c0-0.2-0.1-0.5-0.1-0.7l1.3,0.1c0,0,0.1,0.2,0.1,0.3c0.1,0.4,0.1,0.4,0.1,0.4l4,0l0.1,0.7H713.2z"/>
		<path class="st0" d="M727.8,471.8l-0.2-0.8h1.3v-1.7h-2.9v-2.1h7v1.7c0,0.3-0.2,0.5-0.5,0.5h-2.5v1.5c0,0.4-0.1,0.6-0.3,0.8
			c-0.2,0.1-0.5,0.2-1,0.2H727.8z M727.1,468.7h4.8v-0.9h-4.8V468.7z M724.8,471.1c1-0.3,1.6-0.7,2-1.3h1.3c-0.6,1-1.6,1.5-3.3,1.9
			V471.1z M732.4,471.5c-0.3-0.5-0.7-1-1.5-1.7l0.8,0c0.9,0.6,1.5,1.1,2,1.7H732.4z M724.7,466.7l-0.1-0.7h4.2l0-0.1
			c0-0.1-0.1-0.4-0.2-0.6l0,0h-2.9v-3h7.5v2.5c0,0.3-0.3,0.6-0.6,0.6h-3l0,0c0.1,0.2,0.2,0.3,0.3,0.5c0,0.1,0.1,0.1,0.1,0.2l0,0h4.2
			l0.1,0.7H724.7z M726.8,464.7h5.3V463h-5.3v0.6h4.9l0.1,0.6h-5V464.7z"/>
		<path class="st0" d="M736.9,471.9v-9.6h8.9l0.1,0.8h-7.8v8h7.8l0.1,0.8H736.9z M738.8,470c0.5-0.2,0.9-0.6,1.3-0.9
			c0.1-0.1,0.3-0.3,0.4-0.4c0.4-0.3,0.7-0.7,0.9-1.2l0,0h-2.8l0.1-0.8h2.8l0,0c0.1-0.5,0.1-1,0.1-1.4v-0.1h-1.4l0,0
			c-0.4,0.4-0.9,0.8-1.5,1.1l0.1-0.8c0.6-0.4,0.9-0.9,1-1.9h1.2c-0.1,0.3-0.2,0.6-0.3,0.7l0,0h4.1l0.3,0.8h-2.4v0.1
			c0,0.4,0,0.8-0.1,1.4l0,0h2.8l0.3,0.8h-3.3l0,0.1h0.2c1.2,0.9,2.2,2,2.8,2.8c0.1,0.1,0.1,0.2,0.2,0.2h-1.6
			c-0.1-0.2-0.2-0.3-0.4-0.6c-0.4-0.6-0.9-1.3-1.5-1.9l0,0l0,0c-0.3,0.5-1.4,2.2-3.6,2.8L738.8,470z"/>
		<path class="st0" d="M752.9,471.8l-0.3-0.8h1.3c0.3,0,0.6-0.3,0.6-0.6v-3.6l1.9-1.3H752l-0.1-0.8h6.1v0.9l-2.3,1.4v3.7
			c0,0.4-0.1,0.6-0.3,0.8c-0.2,0.1-0.5,0.2-1,0.2H752.9z M748.7,470.9L748.7,470.9c0.5-0.5,0.8-0.8,1-1.1c0.2-0.4,0.3-1,0.4-1.7
			l0-0.1l-1.6,1v-1.2l1.6-0.8v-0.9h-1c-0.2-0.5-0.5-1-1-1.8h1.2c0.4,0.7,0.6,1,0.8,1.7l0.1,0v-3h3.7l0,0c0-0.3-0.1-0.5-0.2-0.8
			c0-0.1-0.1-0.2-0.1-0.3l1.2,0.1c0,0.1,0.1,0.1,0.1,0.2c0.1,0.3,0.3,0.5,0.4,0.8l0,0h3.1l0.3,0.8h-7.2v3.5c0,0.7-0.1,1.3-0.3,1.9
			c-0.2,0.6-0.5,1.1-0.9,1.5c-0.3,0.3-0.7,0.7-1.3,1.1V470.9z"/>
		<path class="st0" d="M759.7,471c0,0,0.1-0.1,0.1-0.1c0.2-0.2,0.3-0.3,0.4-0.5c0.1-0.3,0.5-1.1,0.5-2.5v-2.1h8.2l0.1,0.9h-7.2v1.2
			c0,2-0.7,3.3-2.2,4V471z M765.6,465.5c0.3-0.4,0.5-0.8,0.8-1.3l0-0.1h1c-0.1,0.5-0.2,0.9-0.4,1.4H765.6z M762.7,465.5
			c-0.1-0.4-0.2-0.9-0.4-1.4h1c0.3,0.5,0.6,1,0.8,1.4H762.7z M760.7,463.8l-0.3-0.8h3.8l0,0c0-0.2-0.1-0.4-0.2-0.6
			c-0.1-0.1-0.1-0.3-0.1-0.4l1.1,0.1c0.2,0.2,0.2,0.4,0.3,0.6c0,0.1,0.1,0.2,0.1,0.3l0,0h3.7l-0.3,0.8H760.7z"/>
		<path class="st0" d="M770.8,471.8v-0.9h3.1v-8.7l1.2,0.1v8.6h1.1v-8.7l1.2,0.1v8.6h3v0.9H770.8z M777.8,469.1
			c0.7-1.7,1.2-3.8,1.4-4.9h1.1c-0.1,1.2-0.5,2.6-0.8,3.8c-0.1,0.4-0.2,0.7-0.3,1.1H777.8z M771.9,469.1c-0.1-0.9-0.6-3.6-1-4.9h1.1
			c0.5,1.3,1,3.2,1.4,4.9H771.9z"/>
		<path class="st0" d="M783.3,471.8l0.2-0.7h3.5V470h-2l-0.1-0.5l0,0c-0.6,0.3-1.3,0.6-2.2,0.8v-0.8c0.2-0.1,0.4-0.1,0.6-0.2
			c0.3-0.1,0.6-0.2,0.8-0.3c0.3-0.2,0.6-0.5,0.8-0.8c0.1-0.1,0.1-0.1,0.2-0.2l0,0h-2.3l-0.1-0.7h1.8v-3.6h-1.5l-0.1-0.7h1.6v-0.9
			l1.2,0.2v0.7h3.9v-0.9l1.2,0.2v0.7h1.5l0.1,0.7h-1.7v3.6h1.6l0.1,0.7H790l0,0c0.6,0.6,1.4,1.2,2.5,1.6v0.8
			c-0.7-0.2-1.2-0.4-1.5-0.5c-0.3-0.1-0.7-0.3-1-0.5l-0.1,0l0.2,0.7h-2v1.1h3.5l0.3,0.7H783.3z M788.1,469.2h1.8l-0.1,0
			c-0.5-0.3-0.9-0.8-1.3-1.3l0,0h-2.1l0,0c-0.4,0.5-0.8,1-1.3,1.3l-0.1,0h1.8v-0.8h1.2V469.2z M785.6,467.1h3.9v-3.6h-3.9v0.8h3.4
			l0.2,0.7h-3.6v0.7h3.4l0.2,0.7h-3.6V467.1z"/>
		<path class="st0" d="M794.8,471.8l0.1-0.9h4V468h-3.3l-0.1-0.8h3.4v-1.4h-1.6l-0.1-0.6l0,0c-0.6,0.3-1.4,0.6-2.5,0.9v-0.7
			c1.2-0.5,2.2-1.1,3-1.7c0.4-0.4,0.9-0.9,1.2-1.6l1.4,0.1c0.8,1.4,2.1,2.5,4.2,3.3v0.7c-1-0.3-1.9-0.6-2.5-0.9l-0.1,0l0.1,0.6h-1.9
			v1.4h3.5l0.1,0.8h-3.6v2.9h4l0.1,0.9H794.8z M799.6,463.2c-0.3,0.4-0.6,0.7-0.9,1c-0.3,0.3-0.7,0.5-1.2,0.9l-0.1,0h4.5l-0.1,0
			C800.9,464.5,800.2,463.9,799.6,463.2L799.6,463.2L799.6,463.2z M796.8,470.4c-0.1-0.6-0.2-1.1-0.4-1.8h0.8c0.3,0.5,0.5,1,0.7,1.7
			l0,0.1H796.8z M801.1,470.4c0.4-0.6,0.6-1.1,0.7-1.8h0.9c-0.1,0.7-0.2,1.3-0.4,1.8H801.1z"/>
	</g>
	<g>
		<path class="st0" d="M784.2,440.3c-0.6,0-1.3,0-2-0.3c0,0,0,0-0.1,0c-0.2-0.1-0.2-0.1-0.2-0.1c0-0.1,0.1-0.1,0.2-0.1
			c2.1-0.2,3.7-1.1,5.2-2l0.2-0.1c0.8-0.4,1.5-0.9,2.1-1.4c0.1-0.1,0.2-0.2,0.3-0.2c0.5-0.3,1-0.7,1.5-1.1c0,0,0.1,0,0.1-0.1
			c1.5-0.9,3-1.4,4.6-1.4c1.4,0,2.9,0.4,4.3,1.2c1.8,0.9,3.1,2.2,4,3.8c0,0.1,0.1,0.2,0,0.3l-0.2-0.2c-0.1-0.1-0.3-0.3-0.4-0.4
			c-1.4-1.2-3.3-1.8-5.3-1.8c-1,0-2.1,0.2-3.1,0.5c-0.9,0.3-1.7,0.7-2.5,1.1c-0.6,0.3-1.1,0.6-1.7,0.8c-1.9,0.8-4,1.5-6.4,1.6
			C784.6,440.3,784.4,440.3,784.2,440.3z"/>
	</g>
	<g>
		<path class="st0" d="M772.1,440.2c-0.4,0-0.9,0-1.4-0.2c1.6-0.2,2.8-0.9,4-1.6l0.1-0.1c0.6-0.4,1.2-0.8,1.8-1.2
			c0.1-0.1,0.2-0.1,0.2-0.2c0.4-0.3,0.8-0.6,1.2-0.9c0,0,0.1,0,0.1-0.1c1.2-0.7,2.4-1.1,3.6-1.1c1.1,0,2.3,0.3,3.4,0.9
			c0.7,0.4,1.4,0.8,1.9,1.4c0,0-0.4,0.2-0.5,0.3c-0.9-0.4-1.8-0.5-2.8-0.5c-0.9,0-1.7,0.1-2.6,0.4c-0.7,0.2-1.4,0.6-2,0.9
			c-0.5,0.2-0.9,0.5-1.4,0.6c-1.5,0.6-3.2,1.2-5.1,1.3C772.4,440.2,772.3,440.2,772.1,440.2L772.1,440.2z"/>
	</g>
</g>
</svg>
